<?xml version="1.0" standalone="no"?>
<!DOCTYPE svg PUBLIC "-//W3C//DTD SVG 20010904//EN"
 "http://www.w3.org/TR/2001/REC-SVG-20010904/DTD/svg10.dtd">
<svg version="1.0" xmlns="http://www.w3.org/2000/svg"
 width="512.000000pt" height="512.000000pt" viewBox="0 0 512.000000 512.000000"
 preserveAspectRatio="xMidYMid meet">
<metadata>
Created by potrace 1.16, written by Peter Selinger 2001-2019
</metadata>
<g transform="translate(0.000000,512.000000) scale(0.100000,-0.100000)"
fill="#000000" stroke="none">
<path d="M2337 5010 c-1140 -103 -2066 -917 -2291 -2015 -39 -186 -49 -320
-43 -567 3 -168 10 -254 27 -347 123 -693 508 -1280 1100 -1676 129 -86 383
-215 535 -270 111 -41 166 -43 214 -8 48 36 51 52 51 301 l0 234 -62 -9 c-35
-4 -133 -8 -218 -7 -140 1 -162 3 -228 27 -41 14 -99 41 -129 59 -62 37 -170
147 -195 199 -99 205 -125 252 -168 306 -28 34 -85 87 -131 120 -45 32 -91 70
-103 86 -19 25 -19 28 -3 44 25 25 123 29 189 8 120 -39 216 -118 308 -256
122 -180 261 -259 454 -259 67 0 175 21 246 46 45 16 46 17 57 76 15 77 71
195 118 247 21 22 33 41 29 41 -5 0 -52 7 -104 15 -350 56 -563 148 -743 323
-195 190 -292 440 -313 812 -15 264 52 491 201 688 l56 73 -23 87 c-39 153
-28 355 30 522 l19 55 79 -1 c131 -3 307 -69 513 -194 l105 -63 95 22 c354 78
729 80 1072 4 l116 -25 104 61 c220 131 382 192 513 195 l79 1 19 -55 c64
-185 72 -395 21 -557 l-16 -51 42 -51 c145 -173 221 -394 221 -641 0 -289 -73
-563 -200 -750 -161 -237 -458 -395 -845 -450 -141 -20 -133 -14 -85 -66 23
-25 56 -75 72 -112 56 -124 60 -166 59 -614 -2 -336 1 -413 13 -441 45 -109
173 -91 501 67 742 358 1251 1029 1395 1837 28 154 38 510 21 682 -59 570
-330 1123 -748 1527 -199 193 -392 329 -648 455 -271 134 -487 203 -771 245
-160 23 -459 33 -607 20z"/>
</g>
</svg>
